<svg width="57" height="33" viewBox="0 0 57 33" fill="none" xmlns="http://www.w3.org/2000/svg">
<path d="M14.9517 19.921C13.5384 18.9344 11.9886 20.2055 11.9886 20.2055C9.8347 21.6359 6.95395 21.1843 5.33398 19.1622C3.71401 17.1402 3.88521 14.2098 5.72946 12.3929C7.57371 10.576 10.4872 10.4675 12.4597 12.1423C13.2256 12.6118 14.1899 12.6026 14.9469 12.1186C14.9469 12.1186 16.6522 10.6957 14.2497 8.79843H14.3204C10.6544 6.17949 5.61605 6.77102 2.64685 10.169C-0.322342 13.5669 -0.263461 18.6739 2.78328 22.0015C5.83001 25.3291 10.8806 25.8027 14.4853 23.0988C16.5392 21.2158 14.9517 19.921 14.9517 19.921Z" fill="#D84727"/>
<path d="M40.7334 19.9209C39.3202 18.9344 37.775 20.2055 37.775 20.2055C35.6227 21.6309 32.7472 21.1776 31.1306 19.158C29.514 17.1385 29.685 14.213 31.5256 12.3982C33.3662 10.5834 36.2746 10.4726 38.2461 12.1423C39.0109 12.6098 39.9728 12.6006 40.7287 12.1186C40.7287 12.1186 42.434 10.6956 40.0315 8.79841H40.1021C36.4367 6.18582 31.4037 6.78096 28.4392 10.1776C25.4746 13.5741 25.5352 18.6761 28.5794 22.0004C31.6237 25.3248 36.6693 25.7988 40.2717 23.0988C42.3209 21.2158 40.7334 19.9209 40.7334 19.9209Z" fill="#D84727"/>
<path d="M20.9295 5.90037C21.9546 5.90037 22.7856 4.89381 22.7856 3.65215C22.7856 2.41049 21.9546 1.40393 20.9295 1.40393C19.9045 1.40393 19.0735 2.41049 19.0735 3.65215C19.0735 4.89381 19.9045 5.90037 20.9295 5.90037Z" fill="#D84727"/>
<path d="M22.7856 9.19684C22.7359 8.20259 21.9207 7.42218 20.932 7.42218C19.9432 7.42218 19.1281 8.20259 19.0783 9.19684V22.6577C19.0438 23.347 19.3893 23.9993 19.9771 24.3543C20.5648 24.7094 21.2991 24.7094 21.8868 24.3543C22.4746 23.9993 22.8202 23.347 22.7856 22.6577V9.19684Z" fill="#D84727"/>
<path d="M46.8341 5.90037C47.8591 5.90037 48.6901 4.89381 48.6901 3.65215C48.6901 2.41049 47.8591 1.40393 46.8341 1.40393C45.809 1.40393 44.978 2.41049 44.978 3.65215C44.978 4.89381 45.809 5.90037 46.8341 5.90037Z" fill="#D84727"/>
<path d="M48.6899 9.19684C48.6401 8.20259 47.825 7.42218 46.8363 7.42218C45.8475 7.42218 45.0324 8.20259 44.9826 9.19684V22.6577C44.9481 23.347 45.2936 23.9993 45.8814 24.3543C46.4691 24.7094 47.2034 24.7094 47.7911 24.3543C48.3789 23.9993 48.7245 23.347 48.6899 22.6577V9.19684Z" fill="#D84727"/>
<path d="M56.7075 2.34308C56.742 1.65383 56.3965 1.00153 55.8087 0.646477C55.221 0.291425 54.4867 0.291425 53.899 0.646477C53.3112 1.00153 52.9656 1.65383 53.0002 2.34308V9.19683V22.6577C52.9656 23.347 53.3112 23.9993 53.899 24.3543C54.4867 24.7094 55.221 24.7094 55.8087 24.3543C56.3965 23.9993 56.742 23.347 56.7075 22.6577V9.19683V2.34308Z" fill="#D84727"/>
<path d="M26.5823 27.8182C25.7438 27.0213 24.3023 27.5383 24.3023 27.5383C23.4095 28.4406 22.1967 28.9477 20.9318 28.9477C19.6669 28.9477 18.454 28.4406 17.5612 27.5383C17.5612 27.5383 16.115 27.0213 15.2765 27.8182C14.6923 28.4164 14.5538 29.3239 14.9326 30.0711C16.5103 31.6965 18.6722 32.6128 20.9294 32.6128C23.1866 32.6128 25.3485 31.6965 26.9262 30.0711C27.3096 29.3246 27.1707 28.4143 26.5823 27.8182Z" fill="#D84727"/>
</svg>
