<svg width="18" height="13" viewBox="0 0 18 13" fill="none" xmlns="http://www.w3.org/2000/svg">
<path d="M14.9535 0.684583C15.2403 0.434422 15.6221 0.296123 16.0182 0.298868C16.4142 0.301613 16.7937 0.445188 17.0764 0.699296C17.3591 0.953404 17.5229 1.29817 17.5334 1.66085C17.5439 2.02352 17.4001 2.37574 17.1325 2.64317L9.00704 11.9511C8.86732 12.089 8.69869 12.1996 8.51123 12.2764C8.32377 12.3532 8.12133 12.3946 7.91601 12.398C7.7107 12.4015 7.50672 12.367 7.31629 12.2967C7.12585 12.2263 6.95287 12.1215 6.80767 11.9885L1.41922 7.0528C1.26916 6.92472 1.14881 6.77028 1.06533 6.59867C0.981849 6.42706 0.936961 6.24181 0.933343 6.05396C0.929725 5.86612 0.96745 5.67953 1.04427 5.50533C1.12108 5.33113 1.23542 5.17289 1.38045 5.04005C1.52549 4.9072 1.69825 4.80247 1.88843 4.73211C2.07861 4.66175 2.28231 4.62719 2.48739 4.63051C2.69246 4.63382 2.89471 4.67494 3.08206 4.7514C3.26942 4.82786 3.43803 4.93811 3.57786 5.07556L7.84219 8.97968L14.9148 0.72562C14.9275 0.711259 14.9411 0.697558 14.9555 0.684583H14.9535Z" fill="#D84727"/>
</svg>
