<svg width="20" height="19" viewBox="0 0 20 19" fill="none" xmlns="http://www.w3.org/2000/svg">
<path d="M19.8055 7.64116H19V7.60315H10V11.267H15.6515C14.827 13.3999 12.6115 14.9309 10 14.9309C6.6865 14.9309 4 12.4702 4 9.43509C4 6.40002 6.6865 3.93927 10 3.93927C11.5295 3.93927 12.921 4.46778 13.9805 5.33109L16.809 2.74026C15.023 1.21563 12.634 0.275391 10 0.275391C4.4775 0.275391 0 4.37664 0 9.43509C0 14.4935 4.4775 18.5948 10 18.5948C15.5225 18.5948 20 14.4935 20 9.43509C20 8.82093 19.931 8.22143 19.8055 7.64116Z" fill="#FFC107"/>
<path d="M1.15283 5.17171L4.43833 7.37874C5.32733 5.36269 7.48033 3.93927 9.99984 3.93927C11.5293 3.93927 12.9208 4.46779 13.9803 5.33109L16.8088 2.74027C15.0228 1.21563 12.6338 0.275391 9.99984 0.275391C6.15883 0.275391 2.82783 2.26167 1.15283 5.17171Z" fill="#FF3D00"/>
<path d="M10.0002 18.5948C12.5832 18.5948 14.9302 17.6894 16.7047 16.217L13.6097 13.818C12.5719 14.5409 11.3039 14.9319 10.0002 14.9309C7.39915 14.9309 5.19065 13.4118 4.35865 11.2918L1.09766 13.5932C2.75266 16.5595 6.11365 18.5948 10.0002 18.5948Z" fill="#4CAF50"/>
<path d="M19.8055 7.64116H19V7.60315H10V11.267H15.6515C15.2571 12.2821 14.5467 13.1691 13.608 13.8185L13.6095 13.8175L16.7045 16.2165C16.4855 16.3987 20 14.0149 20 9.43509C20 8.82093 19.931 8.22143 19.8055 7.64116Z" fill="#1976D2"/>
</svg>
